{
    "asset" : {
        "generator" : "Khronos glTF Blender I/O v3.2.43",
        "version" : "2.0"
    },
    "scene" : 0,
    "scenes" : [
        {
            "name" : "Scene",
            "nodes" : [
                0
            ]
        }
    ],
    "nodes" : [
        {
            "mesh" : 0,
            "name" : "bun_zipper"
        }
    ],
    "meshes" : [
        {
            "name" : "bun_zipper",
            "primitives" : [
                {
                    "attributes" : {
                        "POSITION" : 0,
                        "NORMAL" : 1,
                        "TEXCOORD_0" : 2
                    },
                    "indices" : 3
                }
            ]
        }
    ],
    "accessors" : [
        {
            "bufferView" : 0,
            "componentType" : 5126,
            "count" : 208353,
            "max" : [
                0.48807281255722046,
                1.498568058013916,
                0.47039762139320374
            ],
            "min" : [
                -0.7575191855430603,
                0.26389920711517334,
                -0.49498873949050903
            ],
            "type" : "VEC3"
        },
        {
            "bufferView" : 1,
            "componentType" : 5126,
            "count" : 208353,
            "type" : "VEC3"
        },
        {
            "bufferView" : 2,
            "componentType" : 5126,
            "count" : 208353,
            "type" : "VEC2"
        },
        {
            "bufferView" : 3,
            "componentType" : 5125,
            "count" : 208353,
            "type" : "SCALAR"
        }
    ],
    "bufferViews" : [
        {
            "buffer" : 0,
            "byteLength" : 2500236,
            "byteOffset" : 0
        },
        {
            "buffer" : 0,
            "byteLength" : 2500236,
            "byteOffset" : 2500236
        },
        {
            "buffer" : 0,
            "byteLength" : 1666824,
            "byteOffset" : 5000472
        },
        {
            "buffer" : 0,
            "byteLength" : 833412,
            "byteOffset" : 6667296
        }
    ],
    "buffers" : [
        {
            "byteLength" : 7500708,
            "uri" : "test_model_3.bin"
        }
    ]
}
